<svg xmlns="http://www.w3.org/2000/svg" aria-hidden="true" style="position:absolute;width:0;height:0;overflow:hidden">
  <defs>
    <symbol id="icon-delete" viewBox="0 0 32 32">
      <path d="M9.333 28c-.733 0-1.361-.261-1.884-.784s-.784-1.15-.783-1.883V8c-.378 0-.695-.128-.951-.384s-.384-.572-.383-.949c0-.378.128-.695.384-.951s.572-.384.949-.383h5.333c0-.378.128-.695.384-.951s.572-.384.949-.383h5.333c.378 0 .695.128.951.384s.384.572.383.949h5.333c.378 0 .695.128.951.384s.384.572.383.949c0 .378-.128.695-.384.951s-.572.384-.949.383v17.333c0 .733-.261 1.361-.784 1.884s-1.15.784-1.883.783H9.332zm0-20v17.333h13.333V8H9.333zM12 21.333c0 .378.128.695.384.951s.572.384.949.383c.378 0 .695-.128.951-.384s.384-.572.383-.949v-9.333c0-.378-.128-.695-.384-.951s-.572-.384-.949-.383c-.378 0-.695.128-.951.384s-.384.572-.383.949v9.333zm5.333 0c0 .378.128.695.384.951s.572.384.949.383c.378 0 .695-.128.951-.384s.384-.572.383-.949v-9.333c0-.378-.128-.695-.384-.951s-.572-.384-.949-.383c-.378 0-.695.128-.951.384s-.384.572-.383.949v9.333z"/>
    </symbol>
    <symbol id="icon-phone" viewBox="0 0 32 32">
      <path d="M17.173 6.733a9.312 9.312 0 0 1 8.093 8.093c.08.68.653 1.173 1.32 1.173.053 0 .107 0 .16-.013a1.336 1.336 0 0 0 1.16-1.493A11.976 11.976 0 0 0 17.492 4.079c-.733-.08-1.4.44-1.48 1.173-.093.733.427 1.4 1.16 1.48zm.507 2.814c-.707-.187-1.44.24-1.627.96s.24 1.44.96 1.627A3.997 3.997 0 0 1 19.879 15a1.337 1.337 0 0 0 1.627.96 1.355 1.355 0 0 0 .96-1.627 6.691 6.691 0 0 0-4.786-4.786zm7.96 10.8-3.387-.387a2.647 2.647 0 0 0-2.187.76l-2.453 2.453a20.062 20.062 0 0 1-8.787-8.787l2.467-2.467a2.656 2.656 0 0 0 .76-2.187l-.387-3.36c-.076-.65-.388-1.25-.877-1.686s-1.121-.675-1.776-.674H6.706c-1.507 0-2.76 1.253-2.667 2.76.707 11.387 9.813 20.48 21.187 21.187 1.507.093 2.76-1.16 2.76-2.667v-2.307c.013-1.347-1-2.48-2.347-2.64z"/>
    </symbol>
    <symbol id="icon-search" viewBox="0 0 32 32">
      <path d="M26.2 27.067 18.733 19.6a8.132 8.132 0 0 1-5.067 1.734c-2.422 0-4.472-.839-6.149-2.517S5.001 15.089 5 12.668c0-2.422.839-4.472 2.517-6.149s3.728-2.516 6.149-2.517c2.422 0 4.472.839 6.149 2.517s2.516 3.728 2.517 6.149c0 .978-.155 1.9-.467 2.767s-.733 1.633-1.267 2.3l7.5 7.5c.244.244.367.544.367.9s-.133.667-.4.933c-.244.244-.556.367-.933.367s-.689-.122-.933-.367zm-12.533-8.4c1.667 0 3.083-.584 4.251-1.751s1.75-2.584 1.749-4.249c0-1.667-.584-3.084-1.751-4.251s-2.584-1.75-4.249-1.749c-1.667 0-3.084.584-4.251 1.751s-1.75 2.584-1.749 4.249c0 1.667.584 3.084 1.751 4.251s2.584 1.75 4.249 1.749z"/>
    </symbol>
  </defs>
</svg>
